<svg xmlns="http://www.w3.org/2000/svg" width="20" height="20" viewBox="0 0 20 20" fill="none"><mask id="mask0_1_4270" style="mask-type:luminance" maskUnits="userSpaceOnUse" x="1" y="1" width="18" height="18"><path d="M10 18C11.0508 18.0013 12.0914 17.795 13.0622 17.3928C14.033 16.9907 14.9147 16.4007 15.6568 15.6568C16.4007 14.9147 16.9907 14.033 17.3928 13.0622C17.795 12.0914 18.0013 11.0508 18 10C18.0013 8.94924 17.795 7.90857 17.3928 6.9378C16.9907 5.96702 16.4007 5.08527 15.6568 4.3432C14.9147 3.59927 14.033 3.00929 13.0622 2.60717C12.0914 2.20505 11.0508 1.99871 10 2.00001C8.94924 1.99871 7.90857 2.20505 6.9378 2.60717C5.96702 3.00929 5.08527 3.59927 4.3432 4.3432C3.59927 5.08527 3.00929 5.96702 2.60717 6.9378C2.20505 7.90857 1.99871 8.94924 2.00001 10C1.99871 11.0508 2.20505 12.0914 2.60717 13.0622C3.00929 14.033 3.59927 14.9147 4.3432 15.6568C5.08527 16.4007 5.96702 16.9907 6.9378 17.3928C7.90857 17.795 8.94924 18.0013 10 18Z" fill="white" stroke="white" stroke-width="2" stroke-linejoin="round"></path><path d="M6.7998 10.0002L9.1998 12.4002L13.9998 7.60016" stroke="black" stroke-width="2" stroke-linecap="round" stroke-linejoin="round"></path></mask><g mask="url(#mask0_1_4270)"><path d="M0.400391 0.400146H19.6004V19.6001H0.400391V0.400146Z" fill="white"></path></g></svg>