<svg xmlns="http://www.w3.org/2000/svg" width="24" height="24" viewBox="0 0 24 24" fill="none"><path d="M9.34107 13.418C9.25754 13.418 7.41995 13.418 6.58469 13.418C6.13921 13.418 6 13.2528 6 12.8398C6 11.7384 6 10.6095 6 9.50813C6 9.06758 6.16705 8.92991 6.58469 8.92991H9.34107C9.34107 8.84731 9.34107 7.25031 9.34107 6.50688C9.34107 5.40551 9.53596 4.3592 10.0928 3.39549C10.6775 2.40425 11.5128 1.74343 12.5708 1.35795C13.2668 1.11014 13.9629 1 14.7146 1H17.4432C17.8329 1 18 1.16521 18 1.55069V4.68961C18 5.07509 17.8329 5.2403 17.4432 5.2403C16.6914 5.2403 15.9397 5.2403 15.1879 5.26783C14.4362 5.26783 14.0464 5.62578 14.0464 6.39675C14.0186 7.22278 14.0464 8.02128 14.0464 8.87484H17.2761C17.7216 8.87484 17.8886 9.04005 17.8886 9.4806V12.8123C17.8886 13.2528 17.7494 13.3905 17.2761 13.3905C16.2738 13.3905 14.1299 13.3905 14.0464 13.3905V22.3667C14.0464 22.8348 13.9072 23 13.406 23C12.2367 23 11.0951 23 9.92575 23C9.50812 23 9.34107 22.8348 9.34107 22.4218C9.34107 19.5307 9.34107 13.5006 9.34107 13.418Z" fill="white"></path></svg>