<svg xmlns="http://www.w3.org/2000/svg" width="24" height="24" viewBox="0 0 24 24" fill="none"><path d="M12 9.00781C11.2044 9.00781 10.4413 9.32388 9.87868 9.88649C9.31607 10.4491 9 11.2122 9 12.0078C9 12.8035 9.31607 13.5665 9.87868 14.1291C10.4413 14.6917 11.2044 15.0078 12 15.0078C12.7956 15.0078 13.5587 14.6917 14.1213 14.1291C14.6839 13.5665 15 12.8035 15 12.0078C15 11.2122 14.6839 10.4491 14.1213 9.88649C13.5587 9.32388 12.7956 9.00781 12 9.00781Z" fill="white"></path><path fill-rule="evenodd" clip-rule="evenodd" d="M6.31041 2.32166C10.0919 1.9032 13.9081 1.9032 17.6896 2.32166C19.7555 2.55191 21.4211 4.17558 21.6637 6.24563C22.1121 10.0736 22.1121 13.9408 21.6637 17.7688C21.4211 19.8389 19.7555 21.4625 17.6907 21.6939C13.9089 22.1125 10.0923 22.1125 6.31041 21.6939C4.24452 21.4625 2.57897 19.8389 2.33638 17.7699C1.88787 13.9415 1.88787 10.074 2.33638 6.24563C2.57897 4.17558 4.24452 2.55191 6.31041 2.32166ZM17.4394 5.49081C17.1509 5.49081 16.8742 5.60523 16.6702 5.80891C16.4662 6.01259 16.3515 6.28884 16.3515 6.57688C16.3515 6.86492 16.4662 7.14117 16.6702 7.34485C16.8742 7.54852 17.1509 7.66295 17.4394 7.66295C17.728 7.66295 18.0047 7.54852 18.2087 7.34485C18.4127 7.14117 18.5273 6.86492 18.5273 6.57688C18.5273 6.28884 18.4127 6.01259 18.2087 5.80891C18.0047 5.60523 17.728 5.49081 17.4394 5.49081ZM6.83259 12.0072C6.83259 10.639 7.37701 9.32685 8.3461 8.35938C9.31518 7.39191 10.6295 6.8484 12 6.8484C13.3705 6.8484 14.6849 7.39191 15.654 8.35938C16.623 9.32685 17.1675 10.639 17.1675 12.0072C17.1675 13.3754 16.623 14.6876 15.654 15.6551C14.6849 16.6225 13.3705 17.1661 12 17.1661C10.6295 17.1661 9.31518 16.6225 8.3461 15.6551C7.37701 14.6876 6.83259 13.3754 6.83259 12.0072Z" fill="white"></path></svg>