<svg xmlns="http://www.w3.org/2000/svg" width="24" height="24" viewBox="0 0 24 24" fill="none"><path d="M22.9946 23L23 22.9991V14.9612C23 11.029 22.1633 8 17.6197 8C15.4354 8 13.9696 9.21271 13.3712 10.3624H13.308V8.3671H9V22.9991H13.4858V15.7539C13.4858 13.8462 13.8433 12.0016 16.1783 12.0016C18.4789 12.0016 18.5132 14.1786 18.5132 15.8762V23H22.9946Z" fill="white"></path><path d="M1 9H5V23H1V9Z" fill="white"></path><path d="M3.5 1C2.11988 1 1 2.33759 1 3.98601C1 5.63443 2.11988 7 3.5 7C4.88012 7 6 5.63443 6 3.98601C5.99913 2.33759 4.87925 1 3.5 1Z" fill="white"></path></svg>