<svg xmlns="http://www.w3.org/2000/svg" width="16" height="16" viewBox="0 0 16 16" fill="none"><path d="M10.3346 7.33333C10.3346 8.622 9.28997 9.66667 8.0013 9.66667C6.71264 9.66667 5.66797 8.622 5.66797 7.33333C5.66797 6.04467 6.71264 5 8.0013 5C9.28997 5 10.3346 6.04467 10.3346 7.33333Z" stroke="black" stroke-width="1.25"></path><path d="M8 1.33301C11.2471 1.33301 14 4.02166 14 7.28354C14 10.5973 11.2022 12.9228 8.618 14.5041C8.42967 14.6105 8.21667 14.6663 8 14.6663C7.78333 14.6663 7.57033 14.6105 7.382 14.5041C4.8026 12.9074 2 10.6088 2 7.28354C2 4.02166 4.75296 1.33301 8 1.33301Z" stroke="black" stroke-width="1.25"></path></svg>