<svg xmlns="http://www.w3.org/2000/svg" width="16" height="16" viewBox="0 0 16 16" fill="none"><path d="M1.33203 4L5.94071 6.61131C7.63976 7.574 8.35763 7.574 10.0567 6.61131L14.6654 4" stroke="black" stroke-width="1.5" stroke-linejoin="round"></path><path d="M1.34254 8.98438C1.38612 11.0281 1.40792 12.0499 2.162 12.8069C2.91608 13.5639 3.96558 13.5902 6.06458 13.6429C7.35823 13.6755 8.63916 13.6755 9.93283 13.6429C12.0318 13.5902 13.0813 13.5639 13.8354 12.8069C14.5895 12.0499 14.6113 11.0281 14.6548 8.98438C14.6689 8.32725 14.6689 7.67405 14.6548 7.01692C14.6113 4.97322 14.5895 3.95138 13.8354 3.19443C13.0813 2.43747 12.0318 2.41111 9.93283 2.35837C8.63916 2.32586 7.35823 2.32586 6.06458 2.35836C3.96558 2.41109 2.91608 2.43746 2.162 3.19442C1.40791 3.95137 1.38612 4.97322 1.34254 7.01692C1.32852 7.67405 1.32853 8.32725 1.34254 8.98438Z" stroke="black" stroke-width="1.5" stroke-linejoin="round"></path></svg>